<svg xmlns="http://www.w3.org/2000/svg" version="1.1" xmlns:xlink="http://www.w3.org/1999/xlink" xmlns:svgjs="http://svgjs.dev/svgjs" width="100%" height="100%" viewBox="0 0 1000 600"><rect width="1000" height="600" x="0" y="0" fill="black"/><g><circle r="166.66666666666666" cx="396.1097208658854" cy="418.3319483638244" fill="#b91c1c" transform="matrix(0.5447974898881277,0,0,0.5447974898881277,0,72.09381150045617)"/><path d="M274.2002665505208 351.05098818653914L274.2002665505208 351.05098818653914Q274.2002665505208 347.91691984936625 275.6512241140268 345.7404835041073Q277.13120082880283 343.53502800757826 279.8299818969239 343.53502800757826L279.8299818969239 343.53502800757826L383.051102964738 343.53502800757826Q385.7789031841292 343.53502800757826 387.3459373527156 345.8275409579177Q388.9129715213021 348.1200539082571 388.9129715213021 351.2541222454299L388.9129715213021 351.2541222454299Q388.9129715213021 359.00223563455177 383.051102964738 359.00223563455177L383.051102964738 359.00223563455177L337.92632273970264 359.00223563455177L337.92632273970264 483.929681852415Q337.92632273970264 486.65748207180627 335.6338097893632 488.2245162403927Q333.3412968390238 489.7915504089791 330.2072285018509 489.7915504089791L330.2072285018509 489.7915504089791Q322.4591151127291 489.7915504089791 322.4591151127291 483.929681852415L322.4591151127291 483.929681852415L322.4591151127291 359.00223563455177L279.8299818969239 359.00223563455177Q274.2002665505208 359.00223563455177 274.2002665505208 351.05098818653914ZM406.2374048295633 483.929681852415L406.2374048295633 483.929681852415L406.2374048295633 349.1647433539814Q406.2374048295633 343.53502800757826 414.18865227757595 343.53502800757826L414.18865227757595 343.53502800757826Q417.32272061474885 343.53502800757826 419.52817611127784 344.9859855710842Q421.7046124565368 346.4659622858603 421.7046124565368 349.1647433539814L421.7046124565368 349.1647433539814L421.7046124565368 360.2500591391669Q436.7655519657287 343.3318939486874 459.7487197716631 343.3318939486874L459.7487197716631 343.3318939486874Q475.18690824736655 343.3318939486874 486.2722240325521 351.6894095144817Q497.3575398177377 360.0469250802761 497.3575398177377 374.875711379307L497.3575398177377 374.875711379307Q497.3575398177377 384.0747823319348 492.42428410181736 393.15777667948214Q487.5200475371672 402.24077102702944 477.0731530799243 405.57797342309317L477.0731530799243 405.57797342309317Q496.92225254868583 408.71204176026606 507.48522361100925 420.4357788733942Q518.0191755220625 432.13049683525225 518.0191755220625 445.5083255707772L518.0191755220625 445.5083255707772Q518.0191755220625 466.1699612751021 504.6703659378077 479.75092406951785Q491.2925372022827 493.3318868639337 462.882788108836 493.3318868639337L462.882788108836 493.3318868639337Q438.4196435881255 493.3318868639337 421.29834433875516 486.01906074386363L421.29834433875516 486.01906074386363Q419.41209950619736 489.7915504089791 413.9855182186851 489.7915504089791L413.9855182186851 489.7915504089791Q406.2374048295633 489.7915504089791 406.2374048295633 483.929681852415ZM421.7046124565368 418.75266809972726L421.7046124565368 470.78400632705103Q435.08244119206176 477.8936983882303 460.7934092173874 477.8936983882303L460.7934092173874 477.8936983882303Q482.0934662496549 477.8936983882303 492.337226648007 469.2169721584646Q502.5809870463591 460.54024592869894 502.5809870463591 447.8008385211166L502.5809870463591 447.8008385211166Q502.5809870463591 432.9720522220857 489.81256048750663 425.54314949693514Q477.0731530799243 418.1142467717847 456.1793641654384 418.1142467717847L456.1793641654384 418.1142467717847Q449.70809343220185 418.1142467717847 437.5780882012921 418.43345743575594Q425.4771021216523 418.75266809972726 421.7046124565368 418.75266809972726L421.7046124565368 418.75266809972726ZM421.7046124565368 381.3469821125436L421.7046124565368 401.83450290924776Q430.0621280223312 402.8791923549721 440.30588842068323 402.8791923549721L440.30588842068323 402.8791923549721Q459.951853830554 402.8791923549721 470.92109301065904 394.84088745314904Q481.89033219076407 386.7735634000559 481.89033219076407 375.9204008250313L481.89033219076407 375.9204008250313Q481.89033219076407 366.9244639312943 475.8253295753092 362.54257208950634Q469.76032695985424 358.16068024771835 459.7487197716631 358.16068024771835L459.7487197716631 358.16068024771835Q448.0249826585349 358.16068024771835 437.810241411453 363.7903955941215Q427.5664810131009 369.4491300917947 421.7046124565368 381.3469821125436L421.7046124565368 381.3469821125436Z " fill="white" transform="matrix(0.5447974898881277,0,0,0.5447974898881277,0,72.09381150045617)"/><path d="M646.1097208705312 356.16356907131416L646.1097208705312 356.16356907131416Q646.1097208705312 353.9247631200491 647.146205107228 352.3700367650039Q648.2034190286587 350.79458072522476 650.1312797089147 350.79458072522476L650.1312797089147 350.79458072522476L723.8667683075248 350.79458072522476Q725.8153586725149 350.79458072522476 726.9347616481474 352.4322258192057Q728.05416462378 354.0698709131866 728.05416462378 356.30867686445174L728.05416462378 356.30867686445174Q728.05416462378 361.8435026884126 723.8667683075248 361.8435026884126L723.8667683075248 361.8435026884126L691.6321085462546 361.8435026884126L691.6321085462546 451.0847954680068Q691.6321085462546 453.0333858329968 689.9944634522735 454.15278880862934Q688.3568183582927 455.27219178426185 686.1180124070275 455.27219178426185L686.1180124070275 455.27219178426185Q680.5831865830667 455.27219178426185 680.5831865830667 451.0847954680068L680.5831865830667 451.0847954680068L680.5831865830667 361.8435026884126L650.1312797089147 361.8435026884126Q646.1097208705312 361.8435026884126 646.1097208705312 356.16356907131416ZM727.4530037664958 451.0847954680068L727.4530037664958 451.0847954680068L727.4530037664958 384.9778308514851Q727.4530037664958 380.9355423283676 733.1329373835943 380.9355423283676L733.1329373835943 380.9355423283676Q735.3717433348593 380.9355423283676 736.9264696899045 381.99275624979833Q738.5019257296836 383.02924048649515 738.5019257296836 384.9778308514851L738.5019257296836 384.9778308514851L738.5019257296836 403.63454711202746Q744.1611296620482 391.38330343427134 751.1055740479167 385.12293864462265Q758.0500184337852 378.862573854974 769.5342637763857 378.862573854974L769.5342637763857 378.862573854974Q777.5981111378869 378.862573854974 785.8070662925254 380.9355423283676L785.8070662925254 380.9355423283676Q790.139570401918 383.02924048649515 790.139570401918 386.6154759454661L790.139570401918 386.6154759454661Q790.139570401918 389.14449748300626 789.1030861652213 390.201711404437Q788.0458722437905 391.23819564113376 785.661958499388 391.54914091214283L785.661958499388 391.54914091214283Q778.0541642020335 389.7456583402904 773.2656070284943 389.7456583402904L773.2656070284943 389.7456583402904Q762.2374147500403 389.7456583402904 753.1163534671085 400.6494725103407Q744.0160218689107 411.53255699565705 738.5019257296836 429.00768122636504L738.5019257296836 429.00768122636504L738.5019257296836 451.0847954680068Q738.5019257296836 453.0333858329968 736.8642806357027 454.15278880862934Q735.2059058569878 455.27219178426185 732.9670999057228 455.27219178426185L732.9670999057228 455.27219178426185Q727.4530037664958 455.27219178426185 727.4530037664958 451.0847954680068ZM791.777215495899 428.1163047828058L791.777215495899 428.1163047828058Q791.777215495899 408.1121590145576 807.4488571547546 393.6221093855364Q823.1204988136102 379.1527894412491 842.9795367887208 379.1527894412491L842.9795367887208 379.1527894412491Q856.5574802894488 379.1527894412491 866.1138649517933 389.4554427540153Q875.6702496141378 399.75809606678143 875.6702496141378 412.8799865033629L875.6702496141378 412.8799865033629L875.5044121362663 451.9969015963Q875.5044121362663 453.92476227655607 873.6387405102121 455.0441652521886Q871.7730688841579 456.16356822782114 869.5342629328927 456.16356822782114L869.5342629328927 456.16356822782114Q864.6213276509499 456.16356822782114 864.6213276509499 451.9969015963L864.6213276509499 451.9969015963L864.6213276509499 426.76887527509996Q852.5359214510653 442.44051693395556 841.5491885420793 449.4471503740259Q830.5831853178271 456.47451349883016 818.9538321820891 456.47451349883016L818.9538321820891 456.47451349883016Q808.1951258051763 456.47451349883016 799.9861706505377 447.7265865411092Q791.777215495899 438.9993892681222 791.777215495899 428.1163047828058ZM802.5359218728117 428.4065203690809L802.5359218728117 428.4065203690809Q802.5359218728117 436.9056911099947 808.5060710761853 441.321113958323Q814.4762202795589 445.7158071219174 821.1926381333542 445.7158071219174L821.1926381333542 445.7158071219174Q828.9455402238461 445.7158071219174 838.9372482656033 438.0250940856272Q848.9496859920944 430.3551107340709 855.5831851069538 420.8609151259282Q862.2374139065473 411.3874492025195 862.2374139065473 406.0184608564301L862.2374139065473 406.0184608564301Q862.2374139065473 401.5408489538999 859.6254736300714 398.03753223386474Q857.0135333535954 394.53421551382957 853.1992713625513 392.8758407351147Q849.3850093715071 391.23819564113376 846.2548269766827 390.42973793651026Q843.1246445818583 389.6005505471528 841.0309464237308 389.6005505471528L841.0309464237308 389.6005505471528Q826.416518686306 389.6005505471528 814.4762202795589 401.31282242182664Q802.5359218728117 413.02509429650047 802.5359218728117 428.4065203690809ZM884.9156890054733 386.1594228813195L884.9156890054733 386.1594228813195Q884.9156890054733 383.9206169300544 887.1544949567383 382.28297183607344Q889.3933009080033 380.6453267420925 891.6321068592684 380.6453267420925L891.6321068592684 380.6453267420925Q894.0160206036711 380.6453267420925 895.2183423182394 382.88413269335757L895.2183423182394 382.88413269335757L925.8153569855288 437.3617441741412L956.5574794459558 382.88413269335757Q957.7598011605241 380.6453267420925 960.1437149049267 380.6453267420925L960.1437149049267 380.6453267420925Q962.3825208561918 380.6453267420925 964.6213268074569 382.28297183607344Q966.860132758722 383.9206169300544 966.860132758722 386.1594228813195L966.860132758722 386.1594228813195Q966.860132758722 387.2166368027502 966.549187487713 387.65196018216284L966.549187487713 387.65196018216284L931.9306139820399 450.04831123131Q929.4015924444997 455.27219178426185 925.8153569855288 455.27219178426185L925.8153569855288 455.27219178426185Q922.3742293196955 455.27219178426185 919.8452077821553 450.04831123131L919.8452077821553 450.04831123131L885.2059045917483 387.65196018216284Q884.9156890054733 387.2166368027502 884.9156890054733 386.1594228813195ZM974.1777114698014 415.8650611050497L974.1777114698014 415.8650611050497Q974.1777114698014 406.3086764427052 978.3443781013225 398.8459899384883Q982.5317744175775 391.38330343427134 989.3933000645104 387.0715290096126Q996.2548257114431 382.73902490022004 1004.1735652798066 380.56240800315675Q1012.0715751634363 378.4065207908274 1020.2805303180749 378.4065207908274L1020.2805303180749 378.4065207908274Q1034.9156877402336 378.4065207908274 1042.9795351017347 384.7498043194118Q1051.043382463236 391.09308784799623 1051.043382463236 400.33852723933165L1051.043382463236 400.33852723933165Q1051.043382463236 410.3509649658227 1041.6321055940289 417.35759840589304Q1032.220828724822 424.38496153069735 1014.9115419719855 424.38496153069735L1014.9115419719855 424.38496153069735Q999.3850081062674 424.38496153069735 985.3717412261267 419.90734962816714L985.3717412261267 419.90734962816714Q987.0093863201078 430.9355419066211 995.6536648541589 438.39822841083804Q1004.3186730729442 445.860914915055 1017.005240130113 445.860914915055L1017.005240130113 445.860914915055Q1023.7216579839082 445.860914915055 1030.9563179560519 443.78794644166135Q1038.1909779281955 441.69424828353385 1042.3783742444507 437.8177972382878L1042.3783742444507 437.8177972382878Q1042.9795351017347 436.6154755237195 1044.7622879888531 436.6154755237195L1044.7622879888531 436.6154755237195Q1046.8559861469807 436.6154755237195 1049.2398998913834 438.4811471497738Q1051.623813635786 440.346818775828 1051.623813635786 442.295409140818L1051.623813635786 442.295409140818Q1047.8924703836776 449.90320343817245 1037.071574952563 453.4065201582076Q1026.2506795214485 456.9098368782428 1016.1138636865537 456.9098368782428L1016.1138636865537 456.9098368782428Q997.7473630122865 456.9098368782428 985.952172398677 444.82443067835817Q974.1777114698014 432.73902447847354 974.1777114698014 415.8650611050497ZM985.952172398677 408.40237460083273L985.952172398677 408.40237460083273Q997.1462021550024 413.3360395675095 1013.729949942151 413.3360395675095L1013.729949942151 413.3360395675095Q1026.706732585595 413.3360395675095 1033.4231504393902 409.23156199019013Q1040.1395682931857 405.12708441287083 1040.1395682931857 400.04831165305654L1040.1395682931857 400.04831165305654Q1040.1395682931857 395.5706997505264 1034.5425534150227 392.50270640990385Q1028.94553853686 389.4554427540153 1017.8966165736722 389.4554427540153L1017.8966165736722 389.4554427540153Q1005.9563181669253 389.4554427540153 997.9753895443598 394.74151236116893Q989.9944609217945 400.04831165305654 985.952172398677 408.40237460083273ZM1066.4040788510824 451.0847954680068L1066.4040788510824 451.0847954680068L1066.4040788510824 347.35345305939137Q1066.4040788510824 343.3318942210078 1072.0840124681808 343.3318942210078L1072.0840124681808 343.3318942210078Q1074.3228184194459 343.3318942210078 1075.877544774491 344.3683784577046Q1077.4530008142701 345.4255923791353 1077.4530008142701 347.35345305939137L1077.4530008142701 347.35345305939137L1077.4530008142701 451.0847954680068Q1077.4530008142701 453.0333858329968 1075.8153557202893 454.15278880862934Q1074.1777106263085 455.27219178426185 1071.9389046750432 455.27219178426185L1071.9389046750432 455.27219178426185Q1066.4040788510824 455.27219178426185 1066.4040788510824 451.0847954680068ZM1133.2780418027596 451.0847954680068L1133.2780418027596 451.0847954680068L1133.2780418027596 354.8161395636083Q1133.2780418027596 350.79458072522476 1138.9372457351242 350.79458072522476L1138.9372457351242 350.79458072522476Q1141.1760516863892 350.79458072522476 1142.7515077261685 351.8310649619216Q1144.3269637659475 352.8882788833523 1144.3269637659475 354.8161395636083L1144.3269637659475 354.8161395636083L1144.3269637659475 362.73487913197187Q1155.0649404581263 350.6494729320872 1171.4828507674038 350.6494729320872L1171.4828507674038 350.6494729320872Q1182.5317727305915 350.6494729320872 1190.429782614221 356.61962213546076Q1198.3485221825845 362.5897713388343 1198.3485221825845 373.1826402378756L1198.3485221825845 373.1826402378756Q1198.3485221825845 379.75395029853325 1194.8452054625495 386.2423416202552Q1191.3418887425141 392.7307329419772 1183.8792022382972 395.1146466863798L1183.8792022382972 395.1146466863798Q1198.0583065963096 397.35345263764486 1205.583182154728 405.728245270155Q1213.1287873978808 414.08230821793114 1213.1287873978808 423.63869288027564L1213.1287873978808 423.63869288027564Q1213.1287873978808 438.39822841083804 1203.5724027355363 448.09972086632007Q1194.0160180731918 457.80121332180204 1173.7216567186688 457.80121332180204L1173.7216567186688 457.80121332180204Q1156.2672621726947 457.80121332180204 1144.0160184949384 452.5773327688502L1144.0160184949384 452.5773327688502Q1142.6685889872326 455.27219178426185 1138.7921379419868 455.27219178426185L1138.7921379419868 455.27219178426185Q1133.2780418027596 455.27219178426185 1133.2780418027596 451.0847954680068ZM1144.3269637659475 404.5259235555867L1144.3269637659475 441.69424828353385Q1153.862618743558 446.77302104334814 1172.2291194178254 446.77302104334814L1172.2291194178254 446.77302104334814Q1187.4447080125342 446.77302104334814 1194.7622867236137 440.5748453079013Q1202.0798654346931 434.3766695724545 1202.0798654346931 425.2763379742566L1202.0798654346931 425.2763379742566Q1202.0798654346931 414.6834690752153 1192.9795338364952 409.3766697833277Q1183.8792022382972 404.0698704914401 1168.9538292298635 404.0698704914401L1168.9538292298635 404.0698704914401Q1164.3103798494617 404.0698704914401 1155.6661013154105 404.2978970235134Q1147.0010930966253 404.5259235555867 1144.3269637659475 404.5259235555867L1144.3269637659475 404.5259235555867ZM1144.3269637659475 377.8053599335433L1144.3269637659475 392.44051735570207Q1150.297112969321 393.1867860061237 1157.5939619956666 393.1867860061237L1157.5939619956666 393.1867860061237Q1171.6279585605412 393.1867860061237 1179.463779389969 387.4446633348235Q1187.2996002193968 381.6818109787893 1187.2996002193968 373.92890888829726L1187.2996002193968 373.92890888829726Q1187.2996002193968 367.5027066207771 1182.9670961100041 364.3725242259528Q1178.6553216853454 361.24234183112844 1171.4828507674038 361.24234183112844L1171.4828507674038 361.24234183112844Q1163.1287878196274 361.24234183112844 1155.8112091085482 365.26390066951205Q1148.4936303974687 369.3061891926295 1144.3269637659475 377.8053599335433L1144.3269637659475 377.8053599335433ZM1226.2506778344623 424.82028491011L1226.2506778344623 424.82028491011Q1226.2506778344623 423.47285540240415 1226.3335965733982 411.47036794145527Q1226.416515312334 399.4471507957724 1226.416515312334 384.8327230583476L1226.416515312334 384.8327230583476Q1226.416515312334 382.88413269335757 1228.0541604063146 381.76472971772506Q1229.6918055002957 380.6453267420925 1231.9306114515607 380.6453267420925L1231.9306114515607 380.6453267420925Q1237.4447075907879 380.6453267420925 1237.4447075907879 384.8327230583476L1237.4447075907879 384.8327230583476L1237.4447075907879 423.47285540240415Q1237.4447075907879 434.0864539861793 1244.9903128339406 439.97368445061716Q1252.5359180770931 445.860914915055 1260.5790357538604 445.860914915055L1260.5790357538604 445.860914915055Q1270.7365812734888 445.860914915055 1282.303745355025 438.4811471497738Q1293.8709094365613 431.1013793844926 1298.3485213390918 420.0524574213047L1298.3485213390918 420.0524574213047L1298.3485213390918 384.66688558047605Q1298.3485213390918 380.6453267420925 1304.0284549561902 380.6453267420925L1304.0284549561902 380.6453267420925Q1306.2672609074552 380.6453267420925 1307.8219872625002 381.6818109787893Q1309.3974433022795 382.73902490022004 1309.3974433022795 384.66688558047605L1309.3974433022795 384.66688558047605L1309.3974433022795 451.2506329458783Q1309.3974433022795 453.17849362613435 1307.8219872625002 454.2357075475651Q1306.2672609074552 455.27219178426185 1304.0284549561902 455.27219178426185L1304.0284549561902 455.27219178426185Q1298.3485213390918 455.27219178426185 1298.3485213390918 451.2506329458783L1298.3485213390918 451.2506329458783L1298.3485213390918 438.9993892681222Q1290.8858348348747 447.2083444227608 1280.5209924679066 451.9969015963Q1270.1354204162049 456.7647290851053 1259.2523359308884 456.7647290851053L1259.2523359308884 456.7647290851053Q1245.2183393660139 456.7647290851053 1235.744873442605 447.80950528004496Q1226.2506778344623 438.85428147498465 1226.2506778344623 424.82028491011ZM1324.0118710397041 428.1163047828058L1324.0118710397041 428.1163047828058Q1324.0118710397041 408.1121590145576 1339.6835126985598 393.6221093855364Q1355.3551543574154 379.1527894412491 1375.2141923325262 379.1527894412491L1375.2141923325262 379.1527894412491Q1387.6105438034197 379.1527894412491 1396.855983194755 387.9629054531719L1396.855983194755 387.9629054531719L1396.855983194755 347.20834526625384Q1396.855983194755 343.3318942210078 1402.2249715408448 343.3318942210078L1402.2249715408448 343.3318942210078Q1407.904905157943 343.3318942210078 1407.904905157943 347.20834526625384L1407.904905157943 347.20834526625384L1407.904905157943 451.0847954680068Q1407.904905157943 455.27219178426185 1402.3700793339822 455.27219178426185L1402.3700793339822 455.27219178426185Q1400.1312733827172 455.27219178426185 1398.493628288736 454.15278880862934Q1396.855983194755 453.0333858329968 1396.855983194755 451.0847954680068L1396.855983194755 451.0847954680068L1396.855983194755 426.76887527509996Q1384.7705769948705 442.44051693395556 1373.8045737706184 449.4471503740259Q1362.8178408616322 456.47451349883016 1351.1884877258944 456.47451349883016L1351.1884877258944 456.47451349883016Q1340.4297813489816 456.47451349883016 1332.2208261943429 447.7265865411092Q1324.0118710397041 438.9993892681222 1324.0118710397041 428.1163047828058ZM1334.770577416617 428.4065203690809L1334.770577416617 428.4065203690809Q1334.770577416617 436.9056911099947 1340.7407266199907 441.321113958323Q1346.710875823364 445.7158071219174 1353.4272936771595 445.7158071219174L1353.4272936771595 445.7158071219174Q1361.1801957676514 445.7158071219174 1371.1926334941425 438.0250940856272Q1381.1843415358994 430.3551107340709 1387.817840650759 420.8609151259282Q1394.4720694503526 411.3874492025195 1394.4720694503526 406.0184608564301L1394.4720694503526 406.0184608564301Q1394.4720694503526 401.5408489538999 1391.8601291738767 398.03753223386474Q1389.2481888974007 394.53421551382957 1385.4339269063566 392.8758407351147Q1381.6403946000462 391.23819564113376 1378.4894825204879 390.42973793651026Q1375.3593001256636 389.6005505471528 1373.265601967536 389.6005505471528L1373.265601967536 389.6005505471528Q1358.6511742301113 389.6005505471528 1346.710875823364 401.31282242182664Q1334.770577416617 413.02509429650047 1334.770577416617 428.4065203690809ZM1422.5193328953678 428.1163047828058L1422.5193328953678 428.1163047828058Q1422.5193328953678 408.1121590145576 1438.1909745542234 393.6221093855364Q1453.862616213079 379.1527894412491 1473.7216541881894 379.1527894412491L1473.7216541881894 379.1527894412491Q1486.1180056590833 379.1527894412491 1495.3634450504187 387.9629054531719L1495.3634450504187 387.9629054531719L1495.3634450504187 347.20834526625384Q1495.3634450504187 343.3318942210078 1500.732433396508 343.3318942210078L1500.732433396508 343.3318942210078Q1506.4123670136066 343.3318942210078 1506.4123670136066 347.20834526625384L1506.4123670136066 347.20834526625384L1506.4123670136066 451.0847954680068Q1506.4123670136066 455.27219178426185 1500.8775411896459 455.27219178426185L1500.8775411896459 455.27219178426185Q1498.6387352383806 455.27219178426185 1497.0010901443998 454.15278880862934Q1495.3634450504187 453.0333858329968 1495.3634450504187 451.0847954680068L1495.3634450504187 451.0847954680068L1495.3634450504187 426.76887527509996Q1483.2780388505341 442.44051693395556 1472.3120356262818 449.4471503740259Q1461.325302717296 456.47451349883016 1449.695949581558 456.47451349883016L1449.695949581558 456.47451349883016Q1438.9372432046453 456.47451349883016 1430.7282880500065 447.7265865411092Q1422.5193328953678 438.9993892681222 1422.5193328953678 428.1163047828058ZM1433.2780392722807 428.4065203690809L1433.2780392722807 428.4065203690809Q1433.2780392722807 436.9056911099947 1439.248188475654 441.321113958323Q1445.2183376790276 445.7158071219174 1451.934755532823 445.7158071219174L1451.934755532823 445.7158071219174Q1459.6876576233149 445.7158071219174 1469.700095349806 438.0250940856272Q1479.691803391563 430.3551107340709 1486.3253025064228 420.8609151259282Q1492.9795313060163 411.3874492025195 1492.9795313060163 406.0184608564301L1492.9795313060163 406.0184608564301Q1492.9795313060163 401.5408489538999 1490.36759102954 398.03753223386474Q1487.7556507530644 394.53421551382957 1483.9413887620199 392.8758407351147Q1480.1478564557096 391.23819564113376 1476.9969443761515 390.42973793651026Q1473.8667619813273 389.6005505471528 1471.7730638231997 389.6005505471528L1471.7730638231997 389.6005505471528Q1457.1586360857748 389.6005505471528 1445.2183376790276 401.31282242182664Q1433.2780392722807 413.02509429650047 1433.2780392722807 428.4065203690809ZM1523.431438180168 424.82028491011L1523.431438180168 424.82028491011L1523.431438180168 384.5217777873385Q1523.431438180168 382.59391710708246 1524.9861645352132 381.47451413144995Q1526.5616205749923 380.3551111558174 1528.6553187331199 380.3551111558174L1528.6553187331199 380.3551111558174Q1534.1694148723468 380.3551111558174 1534.1694148723468 384.5217777873385L1534.1694148723468 384.5217777873385L1534.1694148723468 423.47285540240415Q1534.1694148723468 429.00768122636504 1537.1544894740337 433.34018533575767Q1540.1395640757205 437.65195976041633 1544.7000947171864 439.8907657116814Q1549.2398956739182 442.1295716629465 1553.6553185222465 443.24897463857906Q1558.0500116858411 444.36837761421157 1561.7813549379493 444.36837761421157L1561.7813549379493 444.36837761421157Q1572.3742238369907 444.36837761421157 1581.7855007061976 437.8177972382878Q1591.1760478906706 431.2464871776301 1595.0732286206508 420.34267300757983L1595.0732286206508 420.34267300757983L1595.0732286206508 384.5217777873385Q1595.0732286206508 380.50021894895497 1600.7324325530153 380.50021894895497L1600.7324325530153 380.50021894895497Q1602.97123850428 380.50021894895497 1604.5466945440594 381.53670318565173Q1606.1014208991046 382.59391710708246 1606.1014208991046 384.5217777873385L1606.1014208991046 384.5217777873385L1606.1014208991046 456.01846043468356Q1606.1014208991046 464.82857644660635 1602.1627807996567 472.20834421188755Q1598.203411015475 479.6088416619027 1591.9223165410922 484.0864535644329Q1585.6619517514437 488.56406546696303 1578.3443730403644 490.9479792113657Q1571.026794329285 493.33189295576824 1563.875053096077 493.33189295576824L1563.875053096077 493.33189295576824Q1551.623809418321 493.33189295576824 1539.911537543647 487.6519593386698Q1528.1992656689733 481.9927554063053 1528.0541578758357 472.4363707439609L1528.0541578758357 472.4363707439609Q1528.0541578758357 470.0524569995582 1529.608884230881 468.7879462307881Q1531.18434027066 467.50270577728406 1533.423146221925 467.50270577728406L1533.423146221925 467.50270577728406Q1535.8070599663279 467.50270577728406 1537.6105425381802 468.8501352849899Q1539.3932954252987 470.19756479269574 1539.3932954252987 472.2912629508233L1539.3932954252987 472.2912629508233Q1539.3932954252987 477.05909043962856 1547.8924661662124 479.6710307161045Q1556.41236659186 482.28297099258043 1564.6213217464988 482.28297099258043L1564.6213217464988 482.28297099258043Q1571.337739600294 482.28297099258043 1577.9712387151535 479.816138509242Q1584.6254675147468 477.3700357106376 1589.8493480676989 471.3169677683283Q1595.0732286206508 465.26389982601904 1595.0732286206508 457.0549446713804L1595.0732286206508 457.0549446713804L1595.0732286206508 439.7456579185439Q1581.4745554351887 455.27219178426185 1560.4339254302436 455.27219178426185L1560.4339254302436 455.27219178426185Q1545.819497692819 455.27219178426185 1534.6254679364934 446.83521009755Q1523.431438180168 438.39822841083804 1523.431438180168 424.82028491011Z " fill="white" transform="matrix(0.5447974898881277,0,0,0.5447974898881277,0,72.09381150045617)"/></g></svg>